<svg width="30" height="30" viewBox="0 0 30 30" fill="none" xmlns="http://www.w3.org/2000/svg">
<path opacity="0.4" d="M24.1789 10.6213C22.5609 10.6213 21.2492 11.933 21.2492 13.551V16.4404C21.2492 18.0585 22.5609 19.3701 24.1789 19.3701H27.0706C28.6886 19.3701 30.0003 18.0585 30.0003 16.4404V13.551C30.0003 11.933 28.6886 10.6213 27.0706 10.6213H24.1789ZM13.5547 21.2426C11.9367 21.2426 10.625 22.5542 10.625 24.1723V27.0617C10.625 28.6798 11.9367 29.9914 13.5547 29.9914H16.4463C18.0644 29.9914 19.376 28.6798 19.376 27.0617V24.1723C19.376 22.5542 18.0644 21.2426 16.4463 21.2426H13.5547ZM24.1789 21.2426C22.5609 21.2426 21.2492 22.5542 21.2492 24.1723V27.0617C21.2492 28.6798 22.5609 29.9914 24.1789 29.9914H27.0706C28.6886 29.9914 30.0003 28.6798 30.0003 27.0617V24.1723C30.0003 22.5542 28.6886 21.2426 27.0706 21.2426H24.1789Z" fill="#828282"/>
<path d="M0 2.92969C0 1.31168 1.31168 0 2.92969 0H5.82129C7.4393 0 8.75098 1.31168 8.75098 2.92969V5.81912C8.75098 7.43713 7.4393 8.74875 5.82129 8.74875H2.92969C1.31168 8.74875 0 7.43713 0 5.81906V2.92969ZM10.6247 2.92969C10.6247 1.31168 11.9364 0 13.5544 0H16.446C18.064 0 19.3757 1.31168 19.3757 2.92969V5.81912C19.3757 7.43713 18.064 8.74875 16.446 8.74875H13.5544C11.9364 8.74875 10.6247 7.43713 10.6247 5.81906V2.92969ZM24.1786 0C22.5606 0 21.2489 1.31168 21.2489 2.92969V5.81912C21.2489 7.43713 22.5606 8.74875 24.1786 8.74875H27.0703C28.6883 8.74875 29.9999 7.43713 29.9999 5.81906V2.9298C29.9999 1.31174 28.6883 0.000117188 27.0703 0.000117188L24.1786 0ZM2.92969 10.6213C1.31168 10.6213 0 11.933 0 13.551V16.4404C0 18.0584 1.31168 19.37 2.92969 19.37H5.82129C7.4393 19.37 8.75098 18.0584 8.75098 16.4404V13.551C8.75098 11.933 7.4393 10.6213 5.82129 10.6213H2.92969ZM13.5544 10.6213C11.9364 10.6213 10.6247 11.933 10.6247 13.551V16.4404C10.6247 18.0584 11.9364 19.37 13.5544 19.37H16.446C18.064 19.37 19.3757 18.0584 19.3757 16.4404V13.551C19.3757 11.933 18.064 10.6213 16.446 10.6213H13.5544ZM2.92969 21.2426C1.31168 21.2426 0 22.5542 0 24.1723V27.0616C0 28.6797 1.31168 29.9913 2.92969 29.9913H5.82129C7.4393 29.9913 8.75098 28.6797 8.75098 27.0616V24.1723C8.75098 22.5542 7.4393 21.2426 5.82129 21.2426H2.92969Z" fill="#828282"/>
</svg>
