<svg width="189" height="127" viewBox="0 0 189 127" fill="none" xmlns="http://www.w3.org/2000/svg">
<path d="M164.251 17.3633H26.9433C24.9186 17.3633 23.2773 19.0046 23.2773 21.0292V103.77C23.2773 105.794 24.9186 107.435 26.9433 107.435H164.251C166.276 107.435 167.917 105.794 167.917 103.77V21.0292C167.917 19.0046 166.276 17.3633 164.251 17.3633Z" fill="#8A8A8A"/>
<path d="M163.838 21.7871H27.3594V103.024H163.838V21.7871Z" fill="#F4F4F4"/>
<path d="M118.048 107.441H73.1406V118.687H118.048V107.441Z" fill="#8A8A8A"/>
<path d="M139.541 125.141C131.329 118.511 114.731 113.979 95.5907 113.979C76.4499 113.979 59.8569 118.511 51.6406 125.141H139.536H139.541Z" fill="#8A8A8A"/>
<path d="M51.645 126.288H135.957C137.103 126.288 138.248 126.315 139.394 126.288C139.444 126.288 139.495 126.288 139.541 126.288C141.016 126.288 141.016 123.997 139.541 123.997H55.2331C54.0875 123.997 52.9419 123.969 51.7963 123.997C51.7459 123.997 51.6954 123.997 51.6496 123.997C50.1741 123.997 50.1741 126.288 51.6496 126.288H51.645Z" fill="#8A8A8A"/>
<path d="M156.376 27.4355H34.8086V97.7208H156.376V27.4355Z" fill="white"/>
<path d="M156.376 27.4355H34.8086V34.2084H156.376V27.4355Z" fill="#EAEAEA"/>
<path d="M40.7227 30.9785C40.7227 31.8355 40.0308 32.5274 39.1739 32.5274C38.3169 32.5274 37.625 31.8355 37.625 30.9785C37.625 30.1216 38.3169 29.4297 39.1739 29.4297C40.0308 29.4297 40.7227 30.1216 40.7227 30.9785Z" fill="#828282"/>
<path d="M45.9415 30.9785C45.9415 31.8355 45.2495 32.5274 44.3926 32.5274C43.5357 32.5274 42.8438 31.8355 42.8438 30.9785C42.8438 30.1216 43.5357 29.4297 44.3926 29.4297C45.2495 29.4297 45.9415 30.1216 45.9415 30.9785Z" fill="#F9AB43"/>
<path d="M51.1602 30.9785C51.1602 31.8355 50.4683 32.5274 49.6114 32.5274C48.7544 32.5274 48.0625 31.8355 48.0625 30.9785C48.0625 30.1216 48.7544 29.4297 49.6114 29.4297C50.4683 29.4297 51.1602 30.1216 51.1602 30.9785Z" fill="#8A8A8A"/>
<path d="M138.549 63.9344C138.549 68.1227 134.947 71.5503 130.548 71.5503H62.9111C58.5119 71.5503 54.9102 68.1227 54.9102 63.9344C54.9102 59.746 58.5119 56.3184 62.9111 56.3184H130.548C134.947 56.3184 138.549 59.746 138.549 63.9344Z" fill="#EAEAEA"/>
<path d="M71.6432 67.5263L68.8662 64.9419C69.2832 64.3507 69.5032 63.6405 69.4757 62.9027C69.4436 62.0137 69.0679 61.1843 68.4126 60.5794C67.7619 59.9699 66.9095 59.6537 66.016 59.6858C65.127 59.7179 64.2975 60.0936 63.6927 60.7489C63.0832 61.3996 62.767 62.252 62.7991 63.1455C62.8312 64.0345 63.2069 64.864 63.8622 65.4688C64.5129 66.0783 65.3653 66.3945 66.2542 66.3624C66.992 66.3349 67.684 66.0691 68.243 65.6109L71.02 68.1954L71.6386 67.5309L71.6432 67.5263ZM64.4808 64.8044C64.0043 64.3599 63.7293 63.7596 63.7064 63.1135C63.6835 62.4628 63.9126 61.8441 64.3571 61.3676C64.8016 60.891 65.4019 60.616 66.048 60.5931C66.6987 60.5702 67.3174 60.7993 67.7939 61.2438C68.2705 61.6883 68.5455 62.2886 68.5684 62.9348C68.5913 63.5855 68.3622 64.2041 67.9177 64.6807C67.4732 65.1572 66.8729 65.4322 66.2268 65.4551C65.5761 65.478 64.9574 65.2489 64.4808 64.8044Z" fill="#8A8A8A"/>
<path d="M83.682 64.5906C84.1148 64.5906 84.4656 64.2398 84.4656 63.807C84.4656 63.3743 84.1148 63.0234 83.682 63.0234C83.2493 63.0234 82.8984 63.3743 82.8984 63.807C82.8984 64.2398 83.2493 64.5906 83.682 64.5906Z" fill="#828282"/>
<path d="M92.8422 64.5906C93.275 64.5906 93.6258 64.2398 93.6258 63.807C93.6258 63.3743 93.275 63.0234 92.8422 63.0234C92.4094 63.0234 92.0586 63.3743 92.0586 63.807C92.0586 64.2398 92.4094 64.5906 92.8422 64.5906Z" fill="#828282"/>
<path d="M102.01 64.5906C102.443 64.5906 102.794 64.2398 102.794 63.807C102.794 63.3743 102.443 63.0234 102.01 63.0234C101.577 63.0234 101.227 63.3743 101.227 63.807C101.227 64.2398 101.577 64.5906 102.01 64.5906Z" fill="#828282"/>
<path d="M111.174 64.5906C111.607 64.5906 111.958 64.2398 111.958 63.807C111.958 63.3743 111.607 63.0234 111.174 63.0234C110.741 63.0234 110.391 63.3743 110.391 63.807C110.391 64.2398 110.741 64.5906 111.174 64.5906Z" fill="#828282"/>
<path d="M181.445 2H120.934V68.5735H181.445V2Z" fill="#EAEAEA"/>
<path d="M183.445 0H122.934V66.5735H183.445V0Z" fill="#F4F4F4"/>
<path d="M183.445 0H122.934V7.50601H183.445V0Z" fill="#EAEAEA"/>
<path d="M129.48 3.92349C129.48 4.87205 128.71 5.6419 127.761 5.6419C126.813 5.6419 126.043 4.87205 126.043 3.92349C126.043 2.97493 126.813 2.20508 127.761 2.20508C128.71 2.20508 129.48 2.97493 129.48 3.92349Z" fill="#828282"/>
<path d="M135.265 3.92349C135.265 4.87205 134.495 5.6419 133.547 5.6419C132.598 5.6419 131.828 4.87205 131.828 3.92349C131.828 2.97493 132.598 2.20508 133.547 2.20508C134.495 2.20508 135.265 2.97493 135.265 3.92349Z" fill="#F9AB43"/>
<path d="M141.046 3.92349C141.046 4.87205 140.276 5.6419 139.328 5.6419C138.379 5.6419 137.609 4.87205 137.609 3.92349C137.609 2.97493 138.379 2.20508 139.328 2.20508C140.276 2.20508 141.046 2.97493 141.046 3.92349Z" fill="#8A8A8A"/>
<path d="M165.674 41.7342L163.176 44.2324L185.576 66.6324L188.074 64.1341L165.674 41.7342Z" fill="#FF5037"/>
<path d="M166.452 40.3023L161.75 45.0039L168.305 51.559L173.007 46.8573L166.452 40.3023Z" fill="#FF5037"/>
<g opacity="0.2">
<path d="M164.428 42.9806C158.567 48.8369 149.035 48.8415 143.179 42.9806C137.318 37.1196 137.323 27.5882 143.179 21.7319C149.035 15.8755 158.571 15.8709 164.428 21.7319C170.284 27.5928 170.284 37.1242 164.428 42.9806Z" fill="#FF5037"/>
</g>
<path d="M165.853 44.4092C159.208 51.0537 148.394 51.0537 141.749 44.4092C135.104 37.7647 135.104 26.9502 141.749 20.3057C148.394 13.6611 159.208 13.6611 165.853 20.3057C172.497 26.9502 172.497 37.7647 165.853 44.4092ZM144.246 22.8031C138.981 28.0683 138.981 36.642 144.246 41.9072C149.512 47.1724 158.085 47.1724 163.351 41.9072C168.616 36.642 168.616 28.0683 163.351 22.8031C158.085 17.5379 149.512 17.5379 144.246 22.8031Z" fill="#FF5037"/>
<path d="M161.276 27.0824L159.076 24.8828L153.802 30.1526L148.532 24.8828L146.328 27.0824L151.603 32.3568L146.328 37.6265L148.532 39.8307L153.802 34.5563L159.076 39.8307L161.276 37.6265L156.006 32.3568L161.276 27.0824Z" fill="#FF5037"/>
<path d="M68.6684 76.9121H41.293V126.361H83.5154V91.136L68.6684 76.9121Z" fill="#F8B2A8"/>
<path d="M68.375 76.9121L83.2221 91.136H68.375V76.9121Z" fill="#DD8D81"/>
<path d="M57.1422 95.9138C57.1422 97.3985 56.2807 98.5991 55.2176 98.5991C54.1545 98.5991 53.293 97.3939 53.293 95.9138C53.293 94.4337 54.1545 93.2285 55.2176 93.2285C56.2807 93.2285 57.1422 94.4337 57.1422 95.9138Z" fill="white"/>
<path d="M68.0262 98.5991C69.0891 98.5991 69.9508 97.3969 69.9508 95.9138C69.9508 94.4308 69.0891 93.2285 68.0262 93.2285C66.9632 93.2285 66.1016 94.4308 66.1016 95.9138C66.1016 97.3969 66.9632 98.5991 68.0262 98.5991Z" fill="white"/>
<path d="M56.2982 103.984C57.1001 103.104 58.2136 102.417 59.3226 102.018C62.1316 101.005 64.8444 102.064 66.9798 103.984C67.5526 104.497 68.4004 103.654 67.8276 103.136C65.4585 101.005 62.3836 99.7544 59.2309 100.785C57.847 101.239 56.4448 102.055 55.455 103.136C54.9372 103.704 55.7804 104.552 56.3028 103.984H56.2982Z" fill="white"/>
<path d="M49.293 113.007V109.245H50.0307L51.5704 111.76V109.245H52.2761V113.007H51.5154L49.9987 110.551V113.007H49.293Z" fill="white"/>
<path d="M53.453 111.145C53.453 110.76 53.508 110.439 53.6271 110.178C53.7142 109.986 53.8288 109.816 53.9754 109.66C54.122 109.509 54.287 109.394 54.4611 109.321C54.6949 109.22 54.9652 109.17 55.2722 109.17C55.8267 109.17 56.2712 109.344 56.6057 109.688C56.9402 110.031 57.1052 110.508 57.1052 111.122C57.1052 111.736 56.9402 112.203 56.6103 112.547C56.2804 112.891 55.8405 113.06 55.286 113.06C54.7315 113.06 54.2824 112.891 53.9525 112.547C53.6226 112.203 53.4576 111.736 53.4576 111.136L53.453 111.145ZM54.2366 111.117C54.2366 111.544 54.3328 111.864 54.5299 112.089C54.7269 112.309 54.9744 112.419 55.2814 112.419C55.5884 112.419 55.8313 112.309 56.0283 112.094C56.2208 111.874 56.3216 111.548 56.3216 111.113C56.3216 110.678 56.2254 110.361 56.0375 110.146C55.8496 109.935 55.5976 109.825 55.286 109.825C54.9744 109.825 54.7223 109.931 54.5299 110.146C54.3374 110.361 54.2412 110.687 54.2412 111.117H54.2366Z" fill="white"/>
<path d="M60.2085 109.245H61.597C61.9086 109.245 62.1469 109.268 62.3119 109.318C62.5318 109.382 62.7197 109.497 62.8801 109.666C63.0405 109.836 63.1596 110.037 63.2421 110.276C63.3246 110.514 63.3658 110.812 63.3658 111.165C63.3658 111.476 63.3292 111.742 63.2513 111.967C63.155 112.242 63.0221 112.462 62.848 112.631C62.7151 112.759 62.5364 112.86 62.3119 112.934C62.1423 112.989 61.9178 113.011 61.6382 113.011H60.2085V109.245ZM60.9692 109.882V112.375H61.5374C61.7482 112.375 61.904 112.361 61.9957 112.338C62.1194 112.306 62.2202 112.255 62.3027 112.182C62.3852 112.109 62.4493 111.99 62.4997 111.82C62.5502 111.65 62.5776 111.421 62.5776 111.133C62.5776 110.844 62.5502 110.619 62.4997 110.464C62.4493 110.308 62.376 110.184 62.2844 110.097C62.1927 110.01 62.0736 109.95 61.9315 109.918C61.8261 109.895 61.6153 109.882 61.3083 109.882H60.9646H60.9692Z" fill="white"/>
<path d="M67.9262 113.007H67.1013L66.7714 112.15H65.2684L64.9568 113.007H64.1503L65.6166 109.245H66.4186L67.9262 113.007ZM66.5285 111.518L66.0107 110.12L65.5021 111.518H66.5285Z" fill="white"/>
<path d="M69.3112 113.007V109.882H68.1931V109.245H71.1854V109.882H70.0719V113.007H69.3112Z" fill="white"/>
<path d="M75.2032 113.007H74.3784L74.0485 112.15H72.5454L72.2338 113.007H71.4273L72.8937 109.245H73.6956L75.2032 113.007ZM73.8056 111.518L73.2878 110.12L72.7791 111.518H73.8056Z" fill="white"/>
<path d="M29.1213 44.7881L13.8389 37.1309L0 64.74L23.572 76.5535L33.4288 56.8857L29.1213 44.7881Z" fill="#F8B2A8"/>
<path d="M29.1228 44.7891L33.4302 56.8867L25.1406 52.7304L29.1228 44.7891Z" fill="#DD8D81"/>
<path d="M25.4489 55.8126L24.7203 53.6131L19.4505 55.3635L17.6954 50.0938L15.4959 50.8224L17.2464 56.0967L11.9766 57.8472L12.7097 60.0468L17.9795 58.2963L19.73 63.5661L21.9296 62.8329L20.1791 57.5631L25.4489 55.8126Z" fill="white"/>
</svg>
