<svg width="30" height="30" viewBox="0 0 30 30" fill="none" xmlns="http://www.w3.org/2000/svg">
<path d="M2.14062 10.7148V21.4291C2.14062 24.9648 5.03348 27.8577 8.5692 27.8577H21.4263C24.9621 27.8577 27.8549 24.9648 27.8549 21.4291V10.7148H2.14062ZM12.8549 22.5006C12.3192 22.5006 11.7835 21.9648 11.7835 21.4291V15.0006C11.7835 14.572 11.9978 14.2506 12.3192 14.0363C12.6406 13.822 13.0692 13.822 13.3906 14.0363L18.7478 17.2506C19.0692 17.4648 19.2835 17.7863 19.2835 18.2148C19.2835 18.6434 19.0692 18.9648 18.7478 19.1791L13.3906 22.3934C13.2835 22.5006 13.0692 22.5006 12.8549 22.5006Z" fill="#828282"/>
<path opacity="0.4" d="M21.4263 8.57115H27.8549C27.8549 5.03544 24.9621 2.14258 21.4263 2.14258H18.2121L21.4263 8.57115ZM13.9263 8.57115H19.2835L16.0692 2.14258H10.7121L13.9263 8.57115ZM2.14062 8.57115H11.7835L8.5692 2.14258C5.03348 2.14258 2.14062 5.03544 2.14062 8.57115Z" fill="#828282"/>
</svg>
