<svg width="30" height="30" viewBox="0 0 30 30" fill="none" xmlns="http://www.w3.org/2000/svg">
<g clip-path="url(#clip0_491_2569)">
<path opacity="0.4" d="M7.81371 24.375C6.83496 24.3732 5.88139 24.0646 5.08718 23.4926C4.29297 22.9206 3.69808 22.114 3.38621 21.1862L3.34246 21.0425C3.20244 20.6043 3.12953 20.1475 3.12621 19.6875V11.165L0.0937071 21.2875C-0.091891 22.0078 0.0126252 22.7721 0.384775 23.4161C0.756925 24.0602 1.36698 24.5324 2.08371 24.7312L21.4125 29.9075C21.6537 29.97 21.895 30 22.1325 30C23.3775 30 24.515 29.1737 24.8337 27.9562L25.96 24.375H7.81371ZM11.2512 11.25C12.63 11.25 13.7512 10.1287 13.7512 8.75C13.7512 7.37125 12.63 6.25 11.2512 6.25C9.87246 6.25 8.75121 7.37125 8.75121 8.75C8.75121 10.1287 9.87246 11.25 11.2512 11.25Z" fill="#828282"/>
<path d="M26.875 2.5H8.125C7.2965 2.50099 6.50222 2.83055 5.91639 3.41639C5.33055 4.00222 5.00099 4.7965 5 5.625V19.375C5 21.0975 6.4025 22.5 8.125 22.5H26.875C28.5975 22.5 30 21.0975 30 19.375V5.625C30 3.9025 28.5975 2.5 26.875 2.5ZM8.125 5H26.875C27.0408 5 27.1997 5.06585 27.3169 5.18306C27.4342 5.30027 27.5 5.45924 27.5 5.625V14.4988L23.5513 9.89125C23.3425 9.65142 23.085 9.45882 22.796 9.32626C22.5069 9.19371 22.193 9.12425 21.875 9.1225C21.556 9.12415 21.2411 9.19561 20.9526 9.33187C20.6641 9.46813 20.4089 9.66588 20.205 9.91125L15.5625 15.4838L14.05 13.975C13.6387 13.5643 13.0812 13.3337 12.5 13.3337C11.9188 13.3337 11.3613 13.5643 10.95 13.975L7.5 17.4238V5.625C7.5 5.45924 7.56585 5.30027 7.68306 5.18306C7.80027 5.06585 7.95924 5 8.125 5Z" fill="#828282"/>
</g>
<defs>
<clipPath id="clip0_491_2569">
<rect width="30" height="30" fill="white"/>
</clipPath>
</defs>
</svg>
