<svg width="30" height="30" viewBox="0 0 30 30" fill="none" xmlns="http://www.w3.org/2000/svg">
<g clip-path="url(#clip0_491_2543)">
<path d="M11.7862 10.1786C11.7862 10.0365 11.8426 9.90021 11.9431 9.79974C12.0435 9.69927 12.1798 9.64283 12.3219 9.64283C12.464 9.64283 12.6002 9.69927 12.7007 9.79974C12.8012 9.90021 12.8576 10.0365 12.8576 10.1786V13.9286H17.1433V10.1786C17.1433 10.0365 17.1998 9.90021 17.3002 9.79974C17.4007 9.69927 17.537 9.64283 17.6791 9.64283C17.8211 9.64283 17.9574 9.69927 18.0579 9.79974C18.1583 9.90021 18.2148 10.0365 18.2148 10.1786V13.9286H19.2862V10.1786C19.2845 8.69994 18.0862 7.50176 16.6077 7.5H13.3934C11.9148 7.50176 10.7166 8.7 10.7148 10.1786V13.9286H11.7863V10.1786H11.7862Z" fill="#828282"/>
<path d="M14.9994 6.42855C16.7746 6.42855 18.2137 4.98947 18.2137 3.21428C18.2137 1.43908 16.7746 0 14.9994 0C13.2242 0 11.7852 1.43908 11.7852 3.21428C11.7852 4.98947 13.2242 6.42855 14.9994 6.42855Z" fill="#828282"/>
<path d="M26.3042 19.9921L28.6951 24.1369C28.9358 23.9376 29.1296 23.6876 29.2627 23.4048C29.3957 23.122 29.4648 22.8134 29.4649 22.5008V15.0008C29.4631 13.5222 28.2649 12.324 26.7863 12.3223C25.3081 12.3249 24.1104 13.5226 24.1078 15.0008V16.1794L24.1372 16.2303L24.9113 14.8744C24.9833 14.7541 25.0996 14.6668 25.2352 14.6313C25.3708 14.5958 25.515 14.6149 25.6367 14.6844C25.7584 14.754 25.848 14.8684 25.8863 15.0033C25.9245 15.1382 25.9084 15.2827 25.8413 15.4058L24.2385 18.2113C24.1447 18.3753 24.0091 18.5116 23.8456 18.6064C23.6821 18.7011 23.4964 18.7509 23.3074 18.7508H20.4547C20.2462 18.7428 20.0419 18.8114 19.8805 18.9438C19.7191 19.0762 19.6118 19.2631 19.5788 19.4692C19.5667 19.5817 19.5786 19.6955 19.6137 19.8031C19.6488 19.9106 19.7063 20.0095 19.7824 20.0933C19.8572 20.1771 19.9491 20.244 20.0518 20.2897C20.1545 20.3353 20.2657 20.3586 20.3781 20.3579H24.1393C24.3589 20.3576 24.5744 20.2995 24.7643 20.1893C24.9541 20.0792 25.1117 19.921 25.2209 19.7306L27.1982 16.2699C27.2705 16.1502 27.3868 16.0635 27.5221 16.0283C27.6575 15.9931 27.8012 16.0123 27.9227 16.0817C28.0441 16.151 28.1336 16.2652 28.172 16.3996C28.2104 16.5341 28.1947 16.6783 28.1282 16.8013L26.3042 19.9921Z" fill="#828282"/>
<path opacity="0.9" d="M0.535723 29.9992H29.4643C29.6064 29.9992 29.7426 29.9427 29.8431 29.8423C29.9436 29.7418 30 29.6055 30 29.4635V28.9277H3.20529e-09V29.4635C-7.69294e-06 29.5338 0.0138439 29.6035 0.0407638 29.6685C0.0676836 29.7335 0.107144 29.7925 0.156892 29.8423C0.20664 29.892 0.265701 29.9315 0.330701 29.9584C0.395702 29.9853 0.465368 29.9992 0.535723 29.9992Z" fill="#828282"/>
<path opacity="0.4" d="M9.5467 17.6785C10.5275 17.6657 11.3623 18.3896 11.4887 19.3623C11.5155 19.6233 11.4872 19.887 11.4056 20.1364C11.3241 20.3858 11.1911 20.6153 11.0153 20.81C10.8395 21.0048 10.6247 21.1605 10.385 21.267C10.1452 21.3735 9.88572 21.4286 9.62334 21.4285H5.86209C5.33063 21.4271 4.8158 21.2431 4.40387 20.9073L0.394531 27.8571H29.607L25.5978 20.9073C25.1858 21.2431 24.671 21.4272 24.1395 21.4286H20.3783C20.1159 21.4286 19.8564 21.3736 19.6167 21.2671C19.3769 21.1605 19.1621 21.0048 18.9863 20.8101C18.8105 20.6153 18.6775 20.3858 18.596 20.1364C18.5144 19.8871 18.4861 19.6233 18.5129 19.3623C18.6392 18.3896 19.4741 17.6658 20.4549 17.6786H23.3076L23.5218 17.3036L22.3476 15.2679C22.3002 15.1858 22.2319 15.1177 22.1496 15.0707C22.0674 15.0236 21.9741 14.9993 21.8793 15H8.12223C8.02729 14.9991 7.9338 15.0234 7.85134 15.0704C7.76888 15.1175 7.70042 15.1856 7.65295 15.2679L6.47973 17.3036L6.694 17.6786L9.5467 17.6785Z" fill="#828282"/>
<path d="M3.21428 11.2508C4.98947 11.2508 6.42855 9.81174 6.42855 8.03654C6.42855 6.26135 4.98947 4.82227 3.21428 4.82227C1.43908 4.82227 0 6.26135 0 8.03654C0 9.81174 1.43908 11.2508 3.21428 11.2508Z" fill="#828282"/>
<path d="M26.7846 11.2508C28.5598 11.2508 29.9989 9.81174 29.9989 8.03654C29.9989 6.26135 28.5598 4.82227 26.7846 4.82227C25.0094 4.82227 23.5703 6.26135 23.5703 8.03654C23.5703 9.81174 25.0094 11.2508 26.7846 11.2508Z" fill="#828282"/>
<path d="M4.3591 14.6751C4.48244 14.6047 4.62869 14.5861 4.76572 14.6235C4.90274 14.6608 5.01932 14.7511 5.08982 14.8744L5.86285 16.2276L5.89232 16.1794V15.0008C5.88969 13.5226 4.69197 12.3249 3.21377 12.3223C1.7351 12.324 0.536914 13.5222 0.535156 15.0008V22.5008C0.535069 22.8132 0.603866 23.1218 0.73665 23.4046C0.869434 23.6874 1.06294 23.9374 1.30338 24.1369L3.69588 19.9921L1.87443 16.8013C1.80867 16.6783 1.79347 16.5345 1.83206 16.4005C1.87065 16.2665 1.95999 16.1528 2.0811 16.0836C2.2022 16.0143 2.34552 15.9951 2.48059 16.0299C2.61567 16.0647 2.73184 16.1508 2.80443 16.2699L4.78174 19.7306C4.89079 19.9206 5.04788 20.0786 5.23725 20.1887C5.42663 20.2988 5.64163 20.3572 5.86068 20.3579H9.62193C9.73432 20.3586 9.84557 20.3353 9.94828 20.2897C10.051 20.2441 10.1428 20.1771 10.2177 20.0933C10.2938 20.0095 10.3513 19.9106 10.3864 19.8031C10.4215 19.6955 10.4333 19.5817 10.4212 19.4692C10.3882 19.2631 10.2809 19.0762 10.1195 18.9438C9.95813 18.8115 9.75386 18.7428 9.54529 18.7508H6.6926C6.50374 18.7507 6.31826 18.7007 6.15494 18.6059C5.99162 18.5111 5.85627 18.3748 5.7626 18.2108L4.15977 15.4058C4.01311 15.149 4.10234 14.8219 4.3591 14.6751Z" fill="#828282"/>
</g>
<defs>
<clipPath id="clip0_491_2543">
<rect width="30" height="30" fill="white"/>
</clipPath>
</defs>
</svg>
