<svg width="30" height="30" viewBox="0 0 30 30" fill="none" xmlns="http://www.w3.org/2000/svg">
<path d="M3.07812 13.775C3.07812 14.05 3.30313 14.275 3.57813 14.275H3.89312V26.5C3.89312 26.78 4.11312 27 4.39312 27H7.59313C7.79813 27 7.98313 26.875 8.05813 26.685L8.57813 25.37H21.4181L21.9381 26.685C22.0131 26.875 22.1981 27 22.4031 27H25.6081C25.8881 27 26.1081 26.78 26.1081 26.5V14.275H26.4231C26.6981 14.275 26.9231 14.05 26.9231 13.775C26.9231 13.5 26.6981 13.275 26.4231 13.275H3.57813C3.30313 13.275 3.07812 13.5 3.07812 13.775ZM22.6026 8.74L23.1626 11.625H23.9231C25.0281 11.625 25.9231 10.725 25.9231 9.625V5C25.9231 3.9 25.0281 3 23.9231 3H16.6981C15.5981 3 14.6981 3.9 14.6981 5V9.625C14.6981 10.725 15.5981 11.625 16.6981 11.625H17.4576L18.0176 8.74C18.0812 8.41654 18.255 8.12514 18.5094 7.91545C18.7638 7.70576 19.083 7.59074 19.4126 7.59H21.2031C21.8881 7.59 22.4731 8.075 22.6026 8.74Z" fill="#828282"/>
<path opacity="0.4" d="M21.2028 8.58992H19.4128C19.2128 8.58992 19.0378 8.72992 19.0028 8.92992L18.3528 12.2749H22.2678L21.6178 8.92992C21.5995 8.83357 21.5479 8.74671 21.4721 8.68456C21.3962 8.6224 21.3009 8.5889 21.2028 8.58992ZM12.3028 5.93492C12.3028 4.47992 11.1178 3.29492 9.66281 3.29492C8.20781 3.29492 7.02281 4.47992 7.02281 5.93492C7.02281 7.38992 8.20781 8.57492 9.66281 8.57492C11.1178 8.57492 12.3028 7.38992 12.3028 5.93492ZM5.38281 12.2749H13.9428C13.2528 10.5799 11.5828 9.39492 9.66281 9.39492C7.74281 9.39492 6.07281 10.5799 5.38281 12.2749Z" fill="#828282"/>
</svg>
