<svg width="30" height="30" viewBox="0 0 30 30" fill="none" xmlns="http://www.w3.org/2000/svg">
<path opacity="0.4" d="M14.9707 14.2578C16.8422 14.2578 18.3594 12.7407 18.3594 10.8691C18.3594 8.99763 16.8422 7.48047 14.9707 7.48047C13.0992 7.48047 11.582 8.99763 11.582 10.8691C11.582 12.7407 13.0992 14.2578 14.9707 14.2578Z" fill="#FF5037"/>
<path d="M21.6083 1.08435C21.5311 0.967217 21.4261 0.871067 21.3026 0.80453C21.1792 0.737992 21.0411 0.703148 20.9009 0.703125H9.04053C8.90034 0.70314 8.76235 0.737946 8.63892 0.80442C8.51549 0.870895 8.41049 0.966961 8.33333 1.084C8.25617 1.20105 8.20926 1.33541 8.1968 1.47505C8.18435 1.61468 8.20675 1.75523 8.26198 1.88408L9.96903 5.86746L5.98564 4.16042C5.85682 4.10473 5.71616 4.08198 5.57635 4.09424C5.43654 4.10649 5.30198 4.15335 5.18481 4.2306C5.06763 4.30785 4.97153 4.41305 4.90517 4.53671C4.83881 4.66038 4.80428 4.79862 4.80469 4.93896V16.7993C4.80471 16.9395 4.83951 17.0775 4.90599 17.2009C4.97246 17.3244 5.06853 17.4294 5.18557 17.5065C5.30261 17.5837 5.43698 17.6306 5.57661 17.643C5.71625 17.6555 5.85679 17.6331 5.98564 17.5779L9.96987 15.87L8.26198 19.8542C8.20607 19.983 8.18315 20.1237 8.1953 20.2636C8.20745 20.4035 8.25429 20.5382 8.33158 20.6554C8.40887 20.7727 8.51417 20.8688 8.63796 20.9351C8.76174 21.0014 8.90011 21.0358 9.04053 21.0352H20.9009C21.0411 21.0351 21.1791 21.0003 21.3025 20.9339C21.4259 20.8674 21.5309 20.7713 21.6081 20.6543C21.6852 20.5372 21.7322 20.4029 21.7446 20.2632C21.7571 20.1236 21.7347 19.9831 21.6794 19.8542L19.9715 15.87L23.9558 17.5779C24.0846 17.6331 24.2252 17.6555 24.3648 17.643C24.5044 17.6306 24.6388 17.5837 24.7558 17.5065C24.8729 17.4294 24.969 17.3244 25.0354 17.2009C25.1019 17.0775 25.1367 16.9395 25.1367 16.7993V4.93896C25.1367 4.79877 25.1019 4.66078 25.0354 4.53735C24.969 4.41392 24.8729 4.30892 24.7558 4.23176C24.6388 4.1546 24.5044 4.10769 24.3648 4.09524C24.2252 4.08279 24.0846 4.10518 23.9558 4.16042L19.9715 5.86831L21.6794 1.88408C21.7349 1.75534 21.7574 1.61483 21.7449 1.47522C21.7325 1.33561 21.6856 1.20128 21.6083 1.08435ZM20.0537 10.8691C20.0537 13.6724 17.774 15.9521 14.9707 15.9521C12.1674 15.9521 9.8877 13.6724 9.8877 10.8691C9.8877 8.06586 12.1674 5.78613 14.9707 5.78613C17.774 5.78613 20.0537 8.06586 20.0537 10.8691Z" fill="#FF5037"/>
<path opacity="0.4" d="M14.1218 21.9355V25.3301L9.50729 27.6378C9.30631 27.7384 9.1535 27.9146 9.08249 28.1279C9.01147 28.3411 9.02806 28.5738 9.1286 28.7747C9.22915 28.9757 9.40541 29.1285 9.61862 29.1995C9.83183 29.2706 10.0645 29.254 10.2655 29.1534L14.969 26.8008L19.6733 29.1526C20.2138 29.4177 20.6619 29.0704 20.8102 28.7739C20.86 28.6744 20.8897 28.566 20.8976 28.455C20.9056 28.344 20.8915 28.2326 20.8564 28.127C20.8212 28.0214 20.7656 27.9238 20.6927 27.8397C20.6198 27.7556 20.531 27.6868 20.4315 27.637L15.8161 25.3301V21.9355H14.1218Z" fill="#FF5037"/>
</svg>
