<svg width="30" height="30" viewBox="0 0 30 30" fill="none" xmlns="http://www.w3.org/2000/svg">
<g clip-path="url(#clip0_491_2561)">
<path d="M21.7279 3.74066C21.8149 3.81715 21.9243 3.86339 22.0397 3.87243C22.1552 3.88148 22.2705 3.85284 22.3683 3.79082C23.119 3.48222 23.9612 3.48222 24.712 3.79082C24.8098 3.8531 24.9252 3.88189 25.0408 3.87284C25.1564 3.8638 25.2659 3.8174 25.3528 3.74066C25.429 3.65442 25.4751 3.54573 25.4842 3.43099C25.4932 3.31626 25.4647 3.20169 25.403 3.10457C25.2493 2.73551 25.1702 2.33971 25.1702 1.93996C25.1702 1.5402 25.2493 1.1444 25.403 0.775347C25.4641 0.678122 25.4922 0.563688 25.4829 0.449185C25.4736 0.334682 25.4275 0.226272 25.3514 0.14019C25.2645 0.0635064 25.1551 0.0169991 25.0396 0.00762057C24.9241 -0.00175794 24.8087 0.026496 24.7106 0.088159C23.9599 0.39721 23.1175 0.39721 22.3669 0.088159C22.2691 0.0265744 22.1539 -0.00164334 22.0387 0.00773771C21.9235 0.0171188 21.8145 0.063593 21.7279 0.14019C21.6516 0.226471 21.6055 0.335245 21.5964 0.450083C21.5874 0.56492 21.6159 0.679584 21.6778 0.776753C21.8314 1.14589 21.9105 1.54177 21.9105 1.9416C21.9105 2.34143 21.8314 2.73731 21.6778 3.10644C21.6163 3.2033 21.5879 3.31753 21.5969 3.43193C21.606 3.54632 21.652 3.65467 21.7279 3.74066ZM27.8794 19.4133C27.7921 19.3374 27.6826 19.2919 27.5672 19.2834C27.4519 19.275 27.3369 19.3041 27.2395 19.3664C26.8454 19.5248 26.4234 19.6018 25.9988 19.5929C25.5742 19.5839 25.1558 19.4892 24.7687 19.3144C24.6828 19.2792 24.5884 19.27 24.4972 19.2881C24.4061 19.3062 24.3224 19.3507 24.2564 19.4161C24.1909 19.4815 24.1462 19.5647 24.128 19.6554C24.1097 19.746 24.1187 19.8401 24.1537 19.9257C24.3349 20.3083 24.4332 20.7249 24.4423 21.1482C24.4513 21.5715 24.3709 21.9919 24.2062 22.3819C24.1442 22.479 24.1156 22.5937 24.1246 22.7086C24.1337 22.8235 24.1799 22.9323 24.2564 23.0185C24.3436 23.0945 24.4529 23.1404 24.5682 23.1494C24.6836 23.1585 24.7987 23.1301 24.8967 23.0686C25.6474 22.7598 26.4897 22.7598 27.2404 23.0686C27.3384 23.1302 27.4535 23.1586 27.5688 23.1497C27.6841 23.1407 27.7935 23.0949 27.8808 23.0189C27.9575 22.9328 28.0039 22.8239 28.013 22.7089C28.022 22.5938 27.9932 22.479 27.9309 22.3819C27.7773 22.0129 27.6982 21.6172 27.6982 21.2175C27.6982 20.8179 27.7773 20.4221 27.9309 20.0532C27.9933 19.9555 28.0221 19.8401 28.0127 19.7246C28.0034 19.609 27.9566 19.4997 27.8794 19.4133ZM18.3206 13.6271C18.4715 13.4699 18.6748 13.3735 18.892 13.3561C19.2942 13.302 19.6676 13.1178 19.9553 12.8317C20.2431 12.5455 20.4294 12.1731 20.4858 11.7713C20.5058 11.5546 20.6013 11.3517 20.7554 11.1981C20.9096 11.0444 21.1127 10.9497 21.3295 10.9303C21.7317 10.8758 22.105 10.6913 22.3927 10.4051C22.6804 10.1188 22.8667 9.74644 22.9233 9.34457C22.9432 9.12696 23.0389 8.92327 23.1937 8.76905C23.3485 8.61484 23.5526 8.5199 23.7703 8.50082C24.173 8.4461 24.5468 8.2615 24.835 7.97505C25.1232 7.6886 25.3101 7.31594 25.3673 6.91363C25.3852 6.696 25.4828 6.49266 25.6415 6.34269C25.7294 6.25479 25.7788 6.13558 25.7788 6.01128C25.7788 5.88699 25.7294 5.76778 25.6415 5.67988C25.5529 5.59189 25.4331 5.5425 25.3083 5.5425C25.1834 5.5425 25.0636 5.59189 24.975 5.67988C24.6837 5.9623 24.4956 6.33438 24.4411 6.73644C24.4207 6.95413 24.3247 7.1578 24.1697 7.31197C24.0146 7.46615 23.8104 7.56106 23.5926 7.58019C23.1905 7.63525 22.8173 7.81997 22.5297 8.10633C22.2421 8.39268 22.0557 8.76504 21.9989 9.16691C21.9795 9.38417 21.8844 9.58771 21.7302 9.74194C21.5759 9.89618 21.3724 9.99129 21.1551 10.0107C20.753 10.0652 20.3796 10.2496 20.0919 10.5358C19.8042 10.8221 19.6179 11.1945 19.5614 11.5964C19.5415 11.8131 19.4461 12.0159 19.2919 12.1694C19.1377 12.3228 18.9344 12.4172 18.7176 12.436C18.3147 12.489 17.9412 12.6753 17.6564 12.9652C17.5685 13.0531 17.5191 13.1723 17.5191 13.2966C17.5191 13.4209 17.5685 13.5401 17.6564 13.628C17.745 13.7152 17.8644 13.7639 17.9887 13.7638C18.113 13.7636 18.2322 13.7145 18.3206 13.6271ZM1.7667 27.7205C1.64076 28.0211 1.60823 28.3527 1.67336 28.6721C1.73849 28.9915 1.89825 29.2838 2.13186 29.5111C2.36206 29.744 2.65643 29.9029 2.97739 29.9676C3.29834 30.0323 3.6313 29.9998 3.93373 29.8744L9.39982 27.6713L3.98482 22.2849L1.7667 27.7205ZM4.36873 21.3418L10.3481 27.2878L18.2203 24.113L7.56139 13.5141L4.36873 21.3418Z" fill="#828282"/>
<path opacity="0.4" d="M25.5375 17.1324C25.6261 17.2204 25.7459 17.2698 25.8708 17.2698C25.9957 17.2698 26.1155 17.2204 26.2041 17.1324C26.2478 17.0891 26.2826 17.0375 26.3063 16.9806C26.33 16.9238 26.3422 16.8628 26.3422 16.8012C26.3422 16.7396 26.33 16.6786 26.3063 16.6218C26.2826 16.5649 26.2478 16.5134 26.2041 16.47C25.4084 15.6863 24.3694 15.1971 23.2584 15.0831C22.1474 14.969 21.0307 15.237 20.0925 15.8429L18.5667 16.8347L14.887 13.1757L15.8798 11.6541C16.4879 10.7225 16.757 9.61002 16.6419 8.50348C16.5267 7.39693 16.0344 6.36369 15.2475 5.57723C15.1588 5.48935 15.0391 5.44005 14.9142 5.44005C14.7894 5.44005 14.6696 5.48935 14.5809 5.57723C14.4931 5.66514 14.4437 5.78434 14.4437 5.90864C14.4437 6.03294 14.4931 6.15214 14.5809 6.24005C15.2154 6.87453 15.6122 7.70793 15.7049 8.60037C15.7976 9.49281 15.5805 10.39 15.09 11.1413L14.2059 12.4969L11.5486 9.85458C11.3542 9.66113 11.1151 9.5186 10.8525 9.43962C10.5898 9.36064 10.3118 9.34765 10.0429 9.40179C9.77406 9.45593 9.5227 9.57554 9.31111 9.75002C9.09951 9.9245 8.93421 10.1485 8.82984 10.4021L7.94531 12.5705L19.1686 23.73L21.3502 22.8502C21.6041 22.7487 21.8288 22.5857 22.004 22.3758C22.1793 22.1659 22.2996 21.9157 22.3542 21.6477C22.4088 21.3798 22.3959 21.1025 22.3167 20.8407C22.2375 20.579 22.0945 20.3411 21.9005 20.1483L19.2478 17.5107L20.6072 16.6257C21.3642 16.1372 22.2651 15.9213 23.1613 16.0134C24.0575 16.1055 24.8956 16.5002 25.5375 17.1324ZM18.5161 6.73083C18.3241 6.98309 18.2262 7.29441 18.2391 7.61114C18.2429 7.73602 18.2962 7.85425 18.3872 7.93983C18.4323 7.98221 18.4853 8.01529 18.5432 8.03719C18.601 8.05909 18.6626 8.06938 18.7245 8.06747C18.7863 8.06556 18.8471 8.05149 18.9035 8.02607C18.9599 8.00064 19.0108 7.96435 19.0531 7.91928C19.0955 7.87421 19.1286 7.82123 19.1505 7.76337C19.1724 7.70552 19.1827 7.64391 19.1808 7.58208C19.1775 7.5223 19.1862 7.46246 19.2064 7.40611C19.2266 7.34975 19.2579 7.29801 19.2984 7.25395C19.4899 7.00122 19.5889 6.69047 19.579 6.37355C19.569 6.05663 19.4506 5.75272 19.2436 5.51255C19.1565 5.42886 19.1057 5.31446 19.1018 5.19378C19.098 5.07309 19.1414 4.95567 19.223 4.86661C19.4149 4.6145 19.513 4.30339 19.5005 3.98676C19.4928 3.86453 19.4378 3.7501 19.3472 3.66768C19.2566 3.58526 19.1375 3.54132 19.0151 3.54515C18.8927 3.54899 18.7765 3.6003 18.6913 3.68824C18.606 3.77617 18.5583 3.89382 18.5583 4.0163C18.5618 4.07606 18.5532 4.13592 18.5331 4.1923C18.513 4.24867 18.4817 4.30041 18.4411 4.34442C18.2494 4.59692 18.1503 4.90761 18.1604 5.22446C18.1705 5.5413 18.2891 5.84507 18.4964 6.08489C18.5827 6.16906 18.6329 6.28341 18.6366 6.40389C18.6403 6.52436 18.5971 6.64156 18.5161 6.73083ZM27.8414 12.7247C27.7817 12.7244 27.7226 12.7121 27.6676 12.6887C27.6127 12.6653 27.5629 12.6312 27.5213 12.5883C27.2786 12.3826 26.9734 12.2651 26.6554 12.2553C26.3374 12.2454 26.0254 12.3436 25.7705 12.534C25.68 12.6146 25.562 12.6574 25.4408 12.6536C25.3196 12.6498 25.2046 12.5995 25.1194 12.5133C24.877 12.3074 24.5711 12.1915 24.2531 12.1852C24.1289 12.1824 24.0086 12.2283 23.9178 12.3131C23.8271 12.3979 23.7731 12.5149 23.7675 12.639C23.7656 12.7007 23.7758 12.7622 23.7977 12.8199C23.8196 12.8776 23.8527 12.9305 23.8951 12.9754C23.9375 13.0203 23.9883 13.0564 24.0447 13.0816C24.1011 13.1068 24.1619 13.1206 24.2236 13.1222C24.2835 13.1227 24.3428 13.1349 24.398 13.1583C24.4532 13.1817 24.5032 13.2158 24.5452 13.2586C24.7881 13.4646 25.0937 13.5819 25.412 13.5916C25.7303 13.6012 26.0424 13.5025 26.2973 13.3116C26.3872 13.2304 26.5049 13.1871 26.6259 13.1908C26.7469 13.1945 26.8618 13.2448 26.9466 13.3313C27.1888 13.5374 27.4948 13.6533 27.8128 13.6594H27.8278C27.9521 13.6613 28.0721 13.6137 28.1613 13.5271C28.2506 13.4405 28.3017 13.322 28.3036 13.1977C28.3055 13.0734 28.2579 12.9534 28.1713 12.8642C28.0847 12.775 27.9662 12.7238 27.8419 12.7219L27.8414 12.7247Z" fill="#828282"/>
<path d="M27.6522 10.168C28.0426 10.168 28.3591 9.85317 28.3591 9.46484C28.3591 9.07652 28.0426 8.76172 27.6522 8.76172C27.2618 8.76172 26.9453 9.07652 26.9453 9.46484C26.9453 9.85317 27.2618 10.168 27.6522 10.168Z" fill="#828282"/>
<path d="M11.9842 7.58495C12.0499 7.51992 12.1021 7.4425 12.1377 7.35717C12.1733 7.27184 12.1917 7.1803 12.1917 7.08784C12.1917 6.99538 12.1733 6.90384 12.1377 6.81852C12.1021 6.73319 12.0499 6.65577 11.9842 6.59073C11.8513 6.4588 11.6716 6.38477 11.4843 6.38477C11.297 6.38477 11.1173 6.4588 10.9844 6.59073C10.9188 6.65583 10.8667 6.73327 10.8312 6.81859C10.7956 6.90391 10.7773 6.99542 10.7773 7.08784C10.7773 7.18026 10.7956 7.27177 10.8312 7.35709C10.8667 7.44241 10.9188 7.51985 10.9844 7.58495C11.1173 7.71688 11.297 7.79092 11.4843 7.79092C11.6716 7.79092 11.8513 7.71688 11.9842 7.58495Z" fill="#828282"/>
</g>
<defs>
<clipPath id="clip0_491_2561">
<rect width="30" height="30" fill="white"/>
</clipPath>
</defs>
</svg>
