<svg width="30" height="30" viewBox="0 0 30 30" fill="none" xmlns="http://www.w3.org/2000/svg">
<g clip-path="url(#clip0_491_2577)">
<path opacity="0.4" d="M7.91016 0C7.42436 0 7.03125 0.393105 7.03125 0.878906V7.03125H5.27344V0.878906C5.27344 0.393105 4.88033 0 4.39453 0C3.90873 0 3.51562 0.393105 3.51562 0.878906V7.03125H1.75781V0.878906C1.75781 0.393105 1.36471 0 0.878906 0C0.393105 0 0 0.393105 0 0.878906V9.66797C0 11.1219 1.18277 12.3633 2.63672 12.3633H6.15234C7.60629 12.3633 8.78906 11.1219 8.78906 9.66797V0.878906C8.78906 0.393105 8.39596 0 7.91016 0ZM21.2109 18.5156V10.0387C21.2109 10.0363 21.2113 10.0339 21.2113 10.0315C19.7606 8.21777 17.4979 7.03125 15 7.03125C13.4011 7.03125 11.8284 7.50451 10.5469 8.36643V9.66797C10.5469 11.4654 9.45938 13.0685 7.91016 13.7486V18.5479C9.21598 21.1234 11.92 22.9102 15 22.9102C17.6366 22.9102 20.0191 21.6011 21.4571 19.6122C21.3028 19.2773 21.2109 18.908 21.2109 18.5156Z" fill="#828282"/>
<path d="M23.8477 21.1523C23.4393 21.1523 23.0572 21.0512 22.7118 20.8847C20.9425 23.1803 18.1157 24.668 15 24.668C12.2287 24.668 9.67453 23.4894 7.91016 21.6151V26.197C9.9467 27.4855 12.4119 28.2422 15 28.2422C18.8255 28.2422 22.3182 26.5443 24.7266 23.9418V21.1523H23.8477ZM15 1.75781C13.4566 1.75781 11.9233 2.03666 10.5469 2.52398V6.32766C11.8846 5.64334 13.4384 5.27344 15 5.27344C17.4494 5.27344 19.7408 6.19647 21.4462 7.70332C21.6742 6.46219 22.0578 5.26348 22.6153 4.1482C20.4744 2.6465 17.8136 1.75781 15 1.75781Z" fill="#828282"/>
<path d="M29.5356 0.103826C29.2515 -0.0489281 28.9039 -0.0317601 28.6335 0.147595C24.6251 2.81994 22.9688 6.27392 22.9688 10.0387V18.5156C22.9688 19.0014 23.3619 19.3945 23.8477 19.3945H26.4844V28.2422C26.4844 29.2129 27.2713 30 28.2422 30C29.213 30 30 29.2129 30 28.2422V0.878904C30 0.55447 29.8215 0.256638 29.5356 0.103826ZM2.63672 14.1211V28.2422C2.63672 29.2129 3.42369 30 4.39453 30C5.36537 30 6.15234 29.2129 6.15234 28.2422V14.1211H2.63672Z" fill="#828282"/>
</g>
<defs>
<clipPath id="clip0_491_2577">
<rect width="30" height="30" fill="white"/>
</clipPath>
</defs>
</svg>
