<svg width="26" height="26" viewBox="0 0 26 26" fill="none" xmlns="http://www.w3.org/2000/svg">
<path d="M12.2891 6.38843C12.3199 6.2233 12.4075 6.07417 12.5368 5.96685C12.666 5.85953 12.8287 5.80078 12.9966 5.80078C13.1646 5.80078 13.3273 5.85953 13.4565 5.96685C13.5857 6.07417 13.6734 6.2233 13.7042 6.38843L14.4607 10.3891C14.5145 10.6735 14.6527 10.9352 14.8574 11.1398C15.062 11.3445 15.3237 11.4827 15.6081 11.5365L19.6088 12.293C19.7739 12.3238 19.923 12.4114 20.0303 12.5407C20.1377 12.6699 20.1964 12.8326 20.1964 13.0005C20.1964 13.1685 20.1377 13.3312 20.0303 13.4604C19.923 13.5897 19.7739 13.6773 19.6088 13.7081L15.6081 14.4646C15.3237 14.5184 15.062 14.6566 14.8574 14.8613C14.6527 15.0659 14.5145 15.3276 14.4607 15.612L13.7042 19.6127C13.6734 19.7778 13.5857 19.9269 13.4565 20.0342C13.3273 20.1416 13.1646 20.2003 12.9966 20.2003C12.8287 20.2003 12.666 20.1416 12.5368 20.0342C12.4075 19.9269 12.3199 19.7778 12.2891 19.6127L11.5326 15.612C11.4788 15.3276 11.3406 15.0659 11.1359 14.8613C10.9312 14.6566 10.6696 14.5184 10.3852 14.4646L6.38452 13.7081C6.2194 13.6773 6.07026 13.5897 5.96294 13.4604C5.85562 13.3312 5.79688 13.1685 5.79688 13.0005C5.79688 12.8326 5.85562 12.6699 5.96294 12.5407C6.07026 12.4114 6.2194 12.3238 6.38452 12.293L10.3852 11.5365C10.6696 11.4827 10.9312 11.3445 11.1359 11.1398C11.3406 10.9352 11.4788 10.6735 11.5326 10.3891L12.2891 6.38843Z" stroke="black" stroke-width="2" stroke-linecap="round" stroke-linejoin="round"/>
<path d="M22.5967 1V5.79831" stroke="black" stroke-width="2" stroke-linecap="round" stroke-linejoin="round"/>
<path d="M24.9946 3.40625H20.1963" stroke="black" stroke-width="2" stroke-linecap="round" stroke-linejoin="round"/>
<path d="M3.39916 24.9995C4.72417 24.9995 5.79831 23.9253 5.79831 22.6003C5.79831 21.2753 4.72417 20.2012 3.39916 20.2012C2.07414 20.2012 1 21.2753 1 22.6003C1 23.9253 2.07414 24.9995 3.39916 24.9995Z" stroke="black" stroke-width="2" stroke-linecap="round" stroke-linejoin="round"/>
</svg>
