<svg width="30" height="30" viewBox="0 0 30 30" fill="none" xmlns="http://www.w3.org/2000/svg">
<g clip-path="url(#clip0_491_2555)">
<path opacity="0.4" d="M24.3763 10H17.6094C17.9475 13.0769 19.1513 16.9675 22.0094 18.5919C22.5312 18.0479 23.1362 17.5905 23.8019 17.2369L24.3763 16.9394V10ZM20.6831 25H24.3763V18.3469C23.3956 18.8544 21.0588 20.53 20.6831 25ZM13.1263 10H6.35938V16.94L6.93438 17.2369C7.59979 17.5906 8.20465 18.048 8.72625 18.5919C11.585 16.9669 12.7888 13.0769 13.1263 10ZM6.35938 25H10.0531C9.67688 20.53 7.34063 18.855 6.35938 18.3469V25Z" fill="#828282"/>
<path d="M28.9656 5.6409L15.6425 0.739649C15.2276 0.586784 14.7718 0.586784 14.3569 0.739649L1.03438 5.6409C0.914266 5.68505 0.810602 5.765 0.737391 5.86996C0.66418 5.97491 0.624949 6.09981 0.625 6.22777V7.49965C0.625331 7.83107 0.757133 8.14882 0.991482 8.38317C1.22583 8.61752 1.54358 8.74932 1.875 8.74965H28.125C28.4564 8.74932 28.7742 8.61752 29.0085 8.38317C29.2429 8.14882 29.3747 7.83107 29.375 7.49965V6.22777C29.3751 6.09981 29.3358 5.97491 29.2626 5.86996C29.1894 5.765 29.0857 5.68505 28.9656 5.6409ZM28.75 26.2497H1.25C1.08424 26.2497 0.925269 26.3155 0.808058 26.4327C0.690848 26.5499 0.625 26.7089 0.625 26.8747V27.4997C0.625496 27.9968 0.8232 28.4734 1.17472 28.8249C1.52625 29.1764 2.00287 29.3742 2.5 29.3747H27.5C27.9971 29.3742 28.4738 29.1764 28.8253 28.8249C29.1768 28.4734 29.3745 27.9968 29.375 27.4997V26.8747C29.375 26.7089 29.3092 26.5499 29.1919 26.4327C29.0747 26.3155 28.9158 26.2497 28.75 26.2497ZM25.625 9.99965H28.125V24.9996H25.625V9.99965ZM2.60813 9.99965H5.10813V24.9996H2.60813V9.99965Z" fill="#828282"/>
</g>
<defs>
<clipPath id="clip0_491_2555">
<rect width="30" height="30" fill="white"/>
</clipPath>
</defs>
</svg>
